# xmcd
#
# Track frame offsets:
#	150
#	13916
#	27087
#	38697
#	54152
#	65770
#	80767
#	95437
#	108390
#	121491
#	135383
#	152309
#	164736
#	180478
#	191998
#	208437
#	228324
#	242121
#	256622
#	273624
#	289530
#
# Disc length: 4043 seconds
#
# Revision: 1
# Processed by: cddbd v1.5.2PL0 Copyright (c) Steve Scherf et al.
# Submitted via: audiograbber 1.83.01
#
DISCID=280fc915
DTITLE=DIE CAMPBELLS - KEEP IT COUNTRY
DYEAR=1900
DGENRE=Country
TTITLE0=CLAP YOUR HANDS AND STAMP YOUR FEET
TTITLE1=IT MUST BE LOVE
TTITLE2=NEEDLES AND PINS
TTITLE3=I MAY HATE MYSELF IN THE MORNING
TTITLE4=I DON'T WANNA PLAY HOUSE
TTITLE5=ACHY BREAKY HEART
TTITLE6=MOVE ON
TTITLE7=BLUE EYES CRYING IN THE RAIN
TTITLE8=PRETTY WOMAN
TTITLE9=BYE BYE LOVE
TTITLE10=COUNTRY GUITAR MEDLEY
TTITLE11=JAMBALAYA
TTITLE12=OH LORD IT'S HARD TO BE HUMBLE
TTITLE13=LITTLE BITTY
TTITLE14=SOMEBODY LIKE YOU
TTITLE15=COWARD OF THE COUNTRY
TTITLE16=THIS OLD HOUSE
TTITLE17=FIRE
TTITLE18=AS GOOD AS I ONCE WAS
TTITLE19=GOOD HEARTED WOMAN
TTITLE20=HOW GREAT THOU ART
EXTD=
EXTT0=
EXTT1=
EXTT2=
EXTT3=
EXTT4=
EXTT5=
EXTT6=
EXTT7=
EXTT8=
EXTT9=
EXTT10=
EXTT11=
EXTT12=
EXTT13=
EXTT14=
EXTT15=
EXTT16=
EXTT17=
EXTT18=
EXTT19=
EXTT20=
PLAYORDER=
